<?xml version="1.0" standalone="no"?>
<!DOCTYPE svg PUBLIC "-//W3C//DTD SVG 20010904//EN"
 "http://www.w3.org/TR/2001/REC-SVG-20010904/DTD/svg10.dtd">
<svg version="1.0" xmlns="http://www.w3.org/2000/svg"
 width="235.000000pt" height="235.000000pt" viewBox="0 0 235.000000 235.000000"
 preserveAspectRatio="xMidYMid meet">
<metadata>
Created by potrace 1.11, written by Peter Selinger 2001-2013
</metadata>
<g transform="translate(0.000000,235.000000) scale(0.100000,-0.100000)"
fill="#000000" stroke="none">
<path d="M1098 2135 c-2 -2 -16 -6 -33 -8 -129 -23 -217 -72 -370 -203 -94
-81 -175 -171 -215 -239 -13 -22 -26 -42 -29 -45 -10 -9 -43 -103 -68 -195
-17 -59 -25 -117 -26 -170 -1 -155 53 -205 240 -222 58 -5 73 -10 103 -37 37
-34 97 -75 143 -98 l27 -14 -37 -54 c-21 -30 -40 -57 -43 -60 -3 -3 -23 -31
-43 -63 -64 -96 -81 -144 -84 -231 -3 -121 26 -172 130 -227 61 -31 176 -57
243 -54 132 7 203 27 252 72 39 37 54 66 67 139 10 49 13 311 5 349 -14 62 25
73 63 18 40 -60 106 -123 130 -124 94 -5 159 23 240 102 82 82 128 172 156
309 30 142 41 327 27 420 -40 248 -180 449 -381 549 -112 55 -235 83 -372 86
-67 1 -124 1 -125 0z"/>
</g>
</svg>
