<?xml version="1.0" encoding="UTF-8" standalone="no"?><svg xmlns="http://www.w3.org/2000/svg" xmlns:xlink="http://www.w3.org/1999/xlink" contentScriptType="application/ecmascript" contentStyleType="text/css" height="544px" preserveAspectRatio="none" style="width:562px;height:544px;" version="1.1" viewBox="0 0 562 544" width="562px" zoomAndPan="magnify"><defs><filter height="300%" id="fn2l7x0prac50" width="300%" x="-1" y="-1"><feGaussianBlur result="blurOut" stdDeviation="2.0"/><feColorMatrix in="blurOut" result="blurOut2" type="matrix" values="0 0 0 0 0 0 0 0 0 0 0 0 0 0 0 0 0 0 .4 0"/><feOffset dx="4.0" dy="4.0" in="blurOut2" result="blurOut3"/><feBlend in="SourceGraphic" in2="blurOut3" mode="normal"/></filter></defs><g><text fill="#000000" font-family="sans-serif" font-size="18" lengthAdjust="spacingAndGlyphs" textLength="130" x="190.5" y="26.708">JavaScript 结构</text><rect fill="#FEFECE" filter="url(#fn2l7x0prac50)" height="33.9688" rx="12.5" ry="12.5" style="stroke: #A80036; stroke-width: 1.5;" width="81" x="10" y="270.3203"/><text fill="#000000" font-family="sans-serif" font-size="12" lengthAdjust="spacingAndGlyphs" textLength="61" x="20" y="291.459">JavaScript</text><rect fill="#FEFECE" filter="url(#fn2l7x0prac50)" height="33.9688" rx="12.5" ry="12.5" style="stroke: #A80036; stroke-width: 1.5;" width="56" x="141" y="202.8594"/><text fill="#000000" font-family="sans-serif" font-size="12" lengthAdjust="spacingAndGlyphs" textLength="36" x="151" y="223.998">运行时</text><rect fill="#FEFECE" filter="url(#fn2l7x0prac50)" height="33.9688" rx="12.5" ry="12.5" style="stroke: #A80036; stroke-width: 1.5;" width="68" x="247" y="94.9219"/><text fill="#000000" font-family="sans-serif" font-size="12" lengthAdjust="spacingAndGlyphs" textLength="48" x="257" y="116.0605">数据结构</text><rect fill="#FEFECE" filter="url(#fn2l7x0prac50)" height="33.9688" rx="12.5" ry="12.5" style="stroke: #A80036; stroke-width: 1.5;" width="44" x="365" y="67.9375"/><text fill="#000000" font-family="sans-serif" font-size="12" lengthAdjust="spacingAndGlyphs" textLength="24" x="375" y="89.0762">类型</text><rect fill="#FEFECE" filter="url(#fn2l7x0prac50)" height="33.9688" rx="12.5" ry="12.5" style="stroke: #A80036; stroke-width: 1.5;" width="92" x="459" y="40.9531"/><text fill="#000000" font-family="sans-serif" font-size="12" lengthAdjust="spacingAndGlyphs" textLength="72" x="469" y="62.0918">7 种语言类型</text><path d="M409,84.9219 L419,84.9219 C434,84.9219 434,57.9375 449,57.9375 L459,57.9375 " fill="none" style="stroke: #A80036; stroke-width: 1.0;"/><rect fill="#FEFECE" filter="url(#fn2l7x0prac50)" height="33.9688" rx="12.5" ry="12.5" style="stroke: #A80036; stroke-width: 1.5;" width="92" x="459" y="94.9219"/><text fill="#000000" font-family="sans-serif" font-size="12" lengthAdjust="spacingAndGlyphs" textLength="72" x="469" y="116.0605">7 种规范类型</text><path d="M409,84.9219 L419,84.9219 C434,84.9219 434,111.9063 449,111.9063 L459,111.9063 " fill="none" style="stroke: #A80036; stroke-width: 1.0;"/><path d="M315,111.9063 L325,111.9063 C340,111.9063 340,84.9219 355,84.9219 L365,84.9219 " fill="none" style="stroke: #A80036; stroke-width: 1.0;"/><rect fill="#FEFECE" filter="url(#fn2l7x0prac50)" height="33.9688" rx="12.5" ry="12.5" style="stroke: #A80036; stroke-width: 1.5;" width="116" x="365" y="148.8906"/><text fill="#000000" font-family="sans-serif" font-size="12" lengthAdjust="spacingAndGlyphs" textLength="96" x="375" y="170.0293">实例（内置对象）</text><path d="M315,111.9063 L325,111.9063 C340,111.9063 340,165.875 355,165.875 L365,165.875 " fill="none" style="stroke: #A80036; stroke-width: 1.0;"/><path d="M197,219.8438 L207,219.8438 C222,219.8438 222,111.9063 237,111.9063 L247,111.9063 " fill="none" style="stroke: #A80036; stroke-width: 1.0;"/><rect fill="#FEFECE" filter="url(#fn2l7x0prac50)" height="33.9688" rx="12.5" ry="12.5" style="stroke: #A80036; stroke-width: 1.5;" width="68" x="247" y="283.8125"/><text fill="#000000" font-family="sans-serif" font-size="12" lengthAdjust="spacingAndGlyphs" textLength="48" x="257" y="304.9512">执行过程</text><rect fill="#FEFECE" filter="url(#fn2l7x0prac50)" height="33.9688" rx="12.5" ry="12.5" style="stroke: #A80036; stroke-width: 1.5;" width="68" x="365" y="202.8594"/><text fill="#000000" font-family="sans-serif" font-size="12" lengthAdjust="spacingAndGlyphs" textLength="48" x="375" y="223.998">事件循环</text><path d="M315,300.7969 L325,300.7969 C340,300.7969 340,219.8438 355,219.8438 L365,219.8438 " fill="none" style="stroke: #A80036; stroke-width: 1.0;"/><rect fill="#FEFECE" filter="url(#fn2l7x0prac50)" height="33.9688" rx="12.5" ry="12.5" style="stroke: #A80036; stroke-width: 1.5;" width="80" x="365" y="256.8281"/><text fill="#000000" font-family="sans-serif" font-size="12" lengthAdjust="spacingAndGlyphs" textLength="60" x="375" y="277.9668">微任务执行</text><path d="M315,300.7969 L325,300.7969 C340,300.7969 340,273.8125 355,273.8125 L365,273.8125 " fill="none" style="stroke: #A80036; stroke-width: 1.0;"/><rect fill="#FEFECE" filter="url(#fn2l7x0prac50)" height="33.9688" rx="12.5" ry="12.5" style="stroke: #A80036; stroke-width: 1.5;" width="68" x="365" y="310.7969"/><text fill="#000000" font-family="sans-serif" font-size="12" lengthAdjust="spacingAndGlyphs" textLength="48" x="375" y="331.9355">函数执行</text><path d="M315,300.7969 L325,300.7969 C340,300.7969 340,327.7813 355,327.7813 L365,327.7813 " fill="none" style="stroke: #A80036; stroke-width: 1.0;"/><rect fill="#FEFECE" filter="url(#fn2l7x0prac50)" height="33.9688" rx="12.5" ry="12.5" style="stroke: #A80036; stroke-width: 1.5;" width="68" x="365" y="364.7656"/><text fill="#000000" font-family="sans-serif" font-size="12" lengthAdjust="spacingAndGlyphs" textLength="48" x="375" y="385.9043">语句执行</text><path d="M315,300.7969 L325,300.7969 C340,300.7969 340,381.75 355,381.75 L365,381.75 " fill="none" style="stroke: #A80036; stroke-width: 1.0;"/><path d="M197,219.8438 L207,219.8438 C222,219.8438 222,300.7969 237,300.7969 L247,300.7969 " fill="none" style="stroke: #A80036; stroke-width: 1.0;"/><path d="M91,287.3047 L101,287.3047 C116,287.3047 116,219.8438 131,219.8438 L141,219.8438 " fill="none" style="stroke: #A80036; stroke-width: 1.0;"/><rect fill="#FEFECE" filter="url(#fn2l7x0prac50)" height="33.9688" rx="12.5" ry="12.5" style="stroke: #A80036; stroke-width: 1.5;" width="44" x="141" y="445.7188"/><text fill="#000000" font-family="sans-serif" font-size="12" lengthAdjust="spacingAndGlyphs" textLength="24" x="151" y="466.8574">文法</text><rect fill="#FEFECE" filter="url(#fn2l7x0prac50)" height="33.9688" rx="12.5" ry="12.5" style="stroke: #A80036; stroke-width: 1.5;" width="44" x="235" y="418.7344"/><text fill="#000000" font-family="sans-serif" font-size="12" lengthAdjust="spacingAndGlyphs" textLength="24" x="245" y="439.873">词法</text><path d="M185,462.7031 L195,462.7031 C210,462.7031 210,435.7188 225,435.7188 L235,435.7188 " fill="none" style="stroke: #A80036; stroke-width: 1.0;"/><rect fill="#FEFECE" filter="url(#fn2l7x0prac50)" height="33.9688" rx="12.5" ry="12.5" style="stroke: #A80036; stroke-width: 1.5;" width="44" x="235" y="472.7031"/><text fill="#000000" font-family="sans-serif" font-size="12" lengthAdjust="spacingAndGlyphs" textLength="24" x="245" y="493.8418">语法</text><path d="M185,462.7031 L195,462.7031 C210,462.7031 210,489.6875 225,489.6875 L235,489.6875 " fill="none" style="stroke: #A80036; stroke-width: 1.0;"/><path d="M91,287.3047 L101,287.3047 C116,287.3047 116,462.7031 131,462.7031 L141,462.7031 " fill="none" style="stroke: #A80036; stroke-width: 1.0;"/><rect fill="#FEFECE" filter="url(#fn2l7x0prac50)" height="33.9688" rx="12.5" ry="12.5" style="stroke: #A80036; stroke-width: 1.5;" width="44" x="141" y="499.6875"/><text fill="#000000" font-family="sans-serif" font-size="12" lengthAdjust="spacingAndGlyphs" textLength="24" x="151" y="520.8262">语义</text><path d="M91,287.3047 L101,287.3047 C116,287.3047 116,516.6719 131,516.6719 L141,516.6719 " fill="none" style="stroke: #A80036; stroke-width: 1.0;"/><!--
--></g></svg>